<svg width="34" height="34" viewBox="0 0 34 34" fill="none" xmlns="http://www.w3.org/2000/svg">
<path d="M7.4375 7.4375C6.13275 5.559 7.28025 3.26825 9.26075 2.125L17 15.3552L24.7392 2.125C26.7197 3.26825 27.8672 5.559 26.5625 7.4375L18.7212 18.2962L22.0277 23.9509C23.1994 23.3541 24.5507 23.213 25.8203 23.5549C27.0899 23.8968 28.1876 24.6974 28.9011 25.8018C29.6147 26.9062 29.8933 28.2359 29.6831 29.5338C29.4729 30.8318 28.7889 32.0057 27.7633 32.8285C26.7377 33.6513 25.4435 34.0645 24.1309 33.9882C22.8182 33.912 21.5805 33.3517 20.6571 32.4157C19.7337 31.4797 19.1901 30.2345 19.1317 28.921C19.0732 27.6074 19.5039 26.3189 20.3405 25.3045L17 20.6762L13.6595 25.3024C14.4961 26.3167 14.9268 27.6053 14.8683 28.9188C14.8098 30.2324 14.2663 31.4776 13.3429 32.4136C12.4195 33.3496 11.1818 33.9099 9.86914 33.9861C8.55652 34.0624 7.26225 33.6491 6.23666 32.8263C5.21108 32.0035 4.52706 30.8297 4.31689 29.5317C4.10672 28.2338 4.38534 26.904 5.09886 25.7996C5.81239 24.6952 6.91011 23.8947 8.17973 23.5528C9.44934 23.2109 10.8006 23.352 11.9722 23.9488L15.2787 18.2962L7.4375 7.4375ZM12.75 28.6875C12.75 27.8421 12.4142 27.0314 11.8164 26.4336C11.2186 25.8358 10.4079 25.5 9.5625 25.5C8.71712 25.5 7.90637 25.8358 7.3086 26.4336C6.71082 27.0314 6.375 27.8421 6.375 28.6875C6.375 29.5329 6.71082 30.3436 7.3086 30.9414C7.90637 31.5392 8.71712 31.875 9.5625 31.875C10.4079 31.875 11.2186 31.5392 11.8164 30.9414C12.4142 30.3436 12.75 29.5329 12.75 28.6875ZM27.625 28.6875C27.625 27.8421 27.2892 27.0314 26.6914 26.4336C26.0936 25.8358 25.2829 25.5 24.4375 25.5C23.5921 25.5 22.7814 25.8358 22.1836 26.4336C21.5858 27.0314 21.25 27.8421 21.25 28.6875C21.25 29.5329 21.5858 30.3436 22.1836 30.9414C22.7814 31.5392 23.5921 31.875 24.4375 31.875C25.2829 31.875 26.0936 31.5392 26.6914 30.9414C27.2892 30.3436 27.625 29.5329 27.625 28.6875Z" fill="#F19108"/>
</svg>
