<svg width="15" height="17" viewBox="0 0 15 17" fill="none" xmlns="http://www.w3.org/2000/svg">
<path d="M2 0C1.46957 0 0.960859 0.210714 0.585786 0.585786C0.210714 0.960859 0 1.46957 0 2V14C0 14.5304 0.210714 15.0391 0.585786 15.4142C0.960859 15.7893 1.46957 16 2 16H6.257C6.0023 15.6915 5.782 15.3562 5.6 15H2C1.73478 15 1.48043 14.8946 1.29289 14.7071C1.10536 14.5196 1 14.2652 1 14V2C1 1.73478 1.10536 1.48043 1.29289 1.29289C1.48043 1.10536 1.73478 1 2 1H10C10.2652 1 10.5196 1.10536 10.7071 1.29289C10.8946 1.48043 11 1.73478 11 2V7.022C11.343 7.053 11.678 7.116 12 7.207V2C12 1.46957 11.7893 0.960859 11.4142 0.585786C11.0391 0.210714 10.5304 0 10 0H2ZM4 8C4 8.26522 3.89464 8.51957 3.70711 8.70711C3.51957 8.89464 3.26522 9 3 9C2.73478 9 2.48043 8.89464 2.29289 8.70711C2.10536 8.51957 2 8.26522 2 8C2 7.73478 2.10536 7.48043 2.29289 7.29289C2.48043 7.10536 2.73478 7 3 7C3.26522 7 3.51957 7.10536 3.70711 7.29289C3.89464 7.48043 4 7.73478 4 8V8ZM10.5 17C11.6935 17 12.8381 16.5259 13.682 15.682C14.5259 14.8381 15 13.6935 15 12.5C15 11.3065 14.5259 10.1619 13.682 9.31802C12.8381 8.47411 11.6935 8 10.5 8C9.30653 8 8.16193 8.47411 7.31802 9.31802C6.47411 10.1619 6 11.3065 6 12.5C6 13.6935 6.47411 14.8381 7.31802 15.682C8.16193 16.5259 9.30653 17 10.5 17V17ZM10.854 14.854C10.7601 14.9479 10.6328 15.0006 10.5 15.0006C10.3672 15.0006 10.2399 14.9479 10.146 14.854C10.0521 14.7601 9.99937 14.6328 9.99937 14.5C9.99937 14.3672 10.0521 14.2399 10.146 14.146L11.293 13H8.5C8.36739 13 8.24021 12.9473 8.14645 12.8536C8.05268 12.7598 8 12.6326 8 12.5C8 12.3674 8.05268 12.2402 8.14645 12.1464C8.24021 12.0527 8.36739 12 8.5 12H11.293L10.146 10.854C10.0521 10.7601 9.99937 10.6328 9.99937 10.5C9.99937 10.3672 10.0521 10.2399 10.146 10.146C10.2399 10.0521 10.3672 9.99937 10.5 9.99937C10.6328 9.99937 10.7601 10.0521 10.854 10.146L12.854 12.146C12.947 12.2392 12.9994 12.3653 13 12.497V12.503C12.9992 12.6333 12.9475 12.7582 12.856 12.851L12.853 12.854L10.853 14.854H10.854Z" fill="#FF0000"/>
</svg>
